<?xml version="1.0" standalone="no"?>
<!DOCTYPE svg PUBLIC "-//W3C//DTD SVG 20010904//EN"
 "http://www.w3.org/TR/2001/REC-SVG-20010904/DTD/svg10.dtd">
<svg version="1.0" xmlns="http://www.w3.org/2000/svg"
 width="1000.000000pt" height="780.000000pt" viewBox="0 0 1000.000000 780.000000"
 preserveAspectRatio="xMidYMid meet">

<g transform="translate(0.000000,780.000000) scale(0.100000,-0.100000)"
fill="#000000" stroke="none">
<path d="M770 5180 c0 -11 5 -20 10 -20 6 0 10 9 10 20 0 11 -4 20 -10 20 -5
0 -10 -9 -10 -20z"/>
<path d="M754 5114 c-19 -20 -23 -45 -38 -231 -9 -114 -19 -216 -22 -225 -5
-16 -22 -18 -180 -18 l-174 0 0 24 c0 20 6 25 33 29 17 2 -60 4 -173 3 -113 0
-177 -1 -143 -3 59 -4 63 -5 63 -28 0 -16 -6 -25 -15 -25 -11 0 -15 -11 -15
-41 l0 -41 -33 24 c-46 35 -57 40 -57 29 0 -6 24 -29 53 -52 41 -33 53 -38 55
-25 4 18 -19 17 400 16 l252 -1 0 46 c0 44 -5 50 -37 46 -16 -2 -16 -2 4 232
12 142 21 197 30 197 10 0 12 -90 13 -421 0 -231 -3 -450 -6 -485 l-7 -64
-303 0 -304 0 0 -25 0 -25 705 0 705 0 0 25 0 25 -309 0 -309 0 -6 24 c-3 14
-3 31 0 39 3 9 -2 16 -14 19 -16 5 -20 22 -30 149 -6 79 -23 263 -37 409 -13
146 -25 285 -25 310 -1 37 -6 49 -28 65 l-27 21 -21 -22z m60 -61 c3 -10 14
-128 26 -263 11 -135 22 -263 25 -285 5 -51 23 -273 23 -302 1 -21 -4 -23 -48
-23 l-49 0 -1 445 c0 406 5 492 24 428z m-594 -388 c0 -22 -4 -25 -39 -25 -30
0 -40 4 -44 19 -7 27 0 31 45 31 34 0 38 -3 38 -25z m102 19 c3 -3 4 -14 1
-25 -4 -15 -14 -19 -44 -19 -35 0 -39 3 -39 25 0 22 4 25 38 25 21 0 41 -3 44
-6z"/>
<path d="M839 4313 c-13 -17 -13 -17 6 -3 11 8 22 16 24 17 2 2 0 3 -6 3 -6 0
-17 -8 -24 -17z"/>
<path d="M824 4241 c7 -11 46 -35 46 -28 0 3 -12 12 -26 22 -15 9 -23 12 -20
6z"/>
<path d="M1100 4786 c0 -2 8 -10 18 -17 15 -13 16 -12 3 4 -13 16 -21 21 -21
13z"/>
<path d="M1260 4776 c0 -2 8 -10 18 -17 15 -13 16 -12 3 4 -13 16 -21 21 -21
13z"/>
<path d="M970 4740 c0 -5 7 -10 15 -10 8 0 15 5 15 10 0 6 -7 10 -15 10 -8 0
-15 -4 -15 -10z"/>
<path d="M1130 4740 c-13 -8 -12 -10 3 -10 9 0 17 5 17 10 0 12 -1 12 -20 0z"/>
<path d="M1278 4733 c7 -3 16 -2 19 1 4 3 -2 6 -13 5 -11 0 -14 -3 -6 -6z"/>
<path d="M981 4693 c10 -11 10 -14 2 -9 -7 4 -13 3 -13 -2 0 -23 26 -18 28 4
1 16 -3 24 -14 24 -14 0 -15 -2 -3 -17z"/>
<path d="M1123 4695 c0 -8 4 -12 8 -9 4 2 10 -4 12 -13 3 -11 5 -8 6 10 1 16
-4 27 -12 27 -8 0 -14 -7 -14 -15z"/>
<path d="M1291 4694 c0 -11 3 -14 6 -6 3 7 2 16 -1 19 -3 4 -6 -2 -5 -13z"/>
<path d="M1270 4677 c0 -10 8 -17 18 -17 9 0 13 4 7 8 -5 4 -13 11 -17 16 -5
5 -8 2 -8 -7z"/>
<path d="M980 4640 c-13 -8 -12 -10 3 -10 9 0 17 5 17 10 0 12 -1 12 -20 0z"/>
<path d="M1270 4638 c0 -4 7 -8 15 -8 8 0 15 4 15 8 0 5 -7 9 -15 9 -8 0 -15
-4 -15 -9z"/>
<path d="M1128 4633 c7 -3 16 -2 19 1 4 3 -2 6 -13 5 -11 0 -14 -3 -6 -6z"/>
<path d="M978 4603 c7 -3 16 -2 19 1 4 3 -2 6 -13 5 -11 0 -14 -3 -6 -6z"/>
<path d="M1128 4603 c7 -3 16 -2 19 1 4 3 -2 6 -13 5 -11 0 -14 -3 -6 -6z"/>
<path d="M1270 4602 c0 -4 6 -14 12 -20 10 -10 10 -15 -2 -22 -13 -8 -12 -10
3 -10 13 0 17 7 15 30 -1 17 -8 30 -15 30 -7 0 -13 -4 -13 -8z"/>
<path d="M1923 4600 c-13 -5 -23 -12 -23 -15 0 -4 5 -3 11 1 6 3 14 1 18 -5 5
-8 13 -5 26 9 20 22 8 26 -32 10z"/>
<path d="M985 4560 c3 -5 8 -10 11 -10 2 0 4 5 4 10 0 6 -5 10 -11 10 -5 0 -7
-4 -4 -10z"/>
<path d="M1844 4554 c-18 -14 -18 -14 6 -3 31 14 36 19 24 19 -6 0 -19 -7 -30
-16z"/>
<path d="M1899 4553 c-13 -16 -12 -17 4 -4 9 7 17 15 17 17 0 8 -8 3 -21 -13z"/>
<path d="M978 4533 c7 -3 16 -2 19 1 4 3 -2 6 -13 5 -11 0 -14 -3 -6 -6z"/>
<path d="M1825 4504 l-30 -26 33 22 c17 12 32 23 32 26 0 7 -4 5 -35 -22z"/>
<path d="M3836 4495 c-75 -98 -91 -219 -43 -317 29 -59 103 -136 118 -121 4 4
10 60 11 123 l3 115 188 3 187 2 0 -45 c0 -25 -4 -45 -10 -45 -6 0 -10 -125
-10 -355 l0 -355 -122 -1 c-68 0 -117 -3 -110 -6 7 -2 12 -22 12 -44 l0 -39
442 2 441 3 2 33 c1 19 8 37 15 42 10 6 7 9 -11 12 -23 3 -24 7 -27 81 -2 60
-6 77 -18 77 -11 0 -14 12 -12 58 1 33 -4 67 -12 82 l-13 24 32 -27 c18 -15
36 -27 40 -27 17 0 31 26 31 57 0 68 -59 136 -128 148 l-38 6 -28 155 c-21
115 -25 158 -17 168 6 7 9 21 5 30 -5 14 -28 16 -166 16 -159 0 -161 0 -184
25 -30 32 -68 32 -98 0 l-24 -25 -183 2 -184 3 -6 60 c-6 65 -25 115 -44 115
-7 0 -25 -16 -39 -35z m44 -17 c-1 -14 -34 -58 -44 -58 -11 0 -6 26 10 48 17
24 34 29 34 10z m-55 -110 c-9 -40 -13 -48 -26 -48 -12 0 -12 22 1 54 14 38
33 33 25 -6z m569 -30 c15 -24 -13 -53 -43 -43 -23 7 -28 34 -9 53 16 16 38
12 52 -10z m341 -50 c16 -42 53 -314 45 -322 -16 -16 -12 -41 10 -61 30 -27
25 -35 -25 -35 -98 0 -138 -48 -140 -167 0 -33 -4 -43 -17 -43 -12 0 -15 -6
-11 -22 3 -13 3 -21 0 -18 -3 3 -29 102 -57 220 -81 346 -86 364 -98 368 -7 2
-12 23 -12 48 l0 44 150 0 c111 0 152 -3 155 -12z m-914 -31 c4 -15 3 -30 -3
-33 -13 -8 -17 -3 -24 36 -5 25 -4 32 6 28 8 -2 17 -16 21 -31z m39 -96 c11
-16 16 -32 11 -35 -9 -6 -51 39 -51 55 0 18 19 8 40 -20z m572 -48 c18 -64 38
-157 34 -160 -1 -1 -34 19 -74 45 l-72 47 0 63 0 62 48 0 48 0 16 -57z m48
-197 c0 -10 -138 -106 -153 -106 -4 0 -7 49 -7 110 l0 109 80 -51 c44 -28 80
-56 80 -62z m13 -68 c3 -18 17 -79 30 -135 16 -68 20 -100 12 -95 -116 70
-215 140 -215 153 0 17 148 121 161 114 3 -3 9 -19 12 -37z m284 -74 c7 -20
-11 -38 -32 -30 -13 4 -14 10 -5 26 13 24 28 26 37 4z m-323 -121 c84 -58 101
-74 112 -108 8 -22 14 -41 14 -42 0 -2 -58 -3 -130 -3 l-130 0 0 120 c0 140
-16 136 134 33z"/>
<path d="M4350 4325 c0 -8 7 -15 15 -15 8 0 15 7 15 15 0 8 -7 15 -15 15 -8 0
-15 -7 -15 -15z"/>
<path d="M974 4490 c0 -11 6 -20 14 -20 7 0 12 8 10 17 -4 24 -24 27 -24 3z"/>
<path d="M973 4445 c0 -8 6 -15 12 -15 6 0 12 7 12 15 0 8 -6 15 -12 15 -6 0
-12 -7 -12 -15z"/>
<path d="M1606 4415 c-11 -8 -15 -15 -9 -15 6 0 16 7 23 15 16 19 11 19 -14 0z"/>
<path d="M970 4406 c0 -2 7 -9 15 -16 12 -10 15 -10 15 4 0 9 -7 16 -15 16 -8
0 -15 -2 -15 -4z"/>
<path d="M1659 4389 l-24 -20 28 17 c15 9 27 18 27 20 0 8 -8 4 -31 -17z"/>
<path d="M978 4353 c7 -3 16 -2 19 1 4 3 -2 6 -13 5 -11 0 -14 -3 -6 -6z"/>
<path d="M8951 4291 c-27 -57 -25 -81 9 -98 29 -14 62 1 69 32 3 19 -38 115
-49 115 -4 0 -17 -22 -29 -49z m9 -37 c-9 -24 -8 -31 6 -41 10 -7 13 -13 7
-13 -6 0 -16 7 -23 15 -10 12 -10 21 0 45 16 38 24 33 10 -6z"/>
<path d="M70 4286 c0 -2 8 -10 18 -17 15 -13 16 -12 3 4 -13 16 -21 21 -21 13z"/>
<path d="M9090 4101 c-73 -15 -104 -47 -116 -118 l-6 -42 -62 -3 -61 -3 -3
-232 c-1 -128 1 -233 5 -233 5 0 8 71 8 157 l0 158 103 3 102 3 0 -161 0 -160
30 0 30 0 -2 233 -3 232 -57 3 -58 3 0 32 c0 64 57 107 141 107 28 0 39 4 37
13 -5 14 -40 18 -88 8z"/>
<path d="M9190 4091 c0 -12 29 -23 41 -15 18 10 9 24 -16 24 -14 0 -25 -4 -25
-9z"/>
<path d="M9240 4034 c-13 -34 -15 -32 27 -43 43 -12 62 -5 36 14 -13 10 -20
10 -25 2 -5 -9 -10 -9 -20 1 -6 6 -8 12 -2 12 5 0 10 9 11 20 2 28 -16 25 -27
-6z"/>
<path d="M5120 3989 c-23 -44 -19 -75 9 -84 26 -8 49 3 57 27 6 21 -23 98 -37
98 -5 0 -18 -18 -29 -41z m11 -26 c-12 -20 -14 -14 -5 12 4 9 9 14 11 11 3 -2
0 -13 -6 -23z m9 -38 c11 -13 10 -14 -4 -9 -9 3 -16 10 -16 15 0 13 6 11 20
-6z"/>
<path d="M6408 3993 c18 -2 45 -2 60 0 15 2 0 4 -33 4 -33 0 -45 -2 -27 -4z"/>
<path d="M6662 3923 l-2 -83 -45 0 -45 0 0 -45 c0 -48 2 -49 63 -45 26 1 27 0
27 -46 l0 -47 -35 6 -35 6 0 -45 0 -44 -335 0 c-293 0 -335 -2 -335 -15 0 -11
-7 -14 -25 -9 -19 5 -25 2 -25 -11 0 -13 6 -15 30 -11 83 16 95 17 78 6 -19
-12 -25 -70 -8 -70 6 0 10 -5 10 -11 0 -7 -28 -9 -80 -8 -44 2 -80 0 -80 -4 0
-4 0 -11 0 -17 0 -12 22 -9 32 5 5 6 15 5 28 -3 16 -10 25 -10 35 -2 10 8 19
8 33 1 13 -7 22 -7 30 1 9 9 15 9 24 0 8 -8 17 -8 31 -1 13 7 22 8 29 1 7 -7
18 -7 33 0 16 7 29 7 43 -1 15 -8 22 -8 25 2 3 9 9 9 25 0 11 -6 23 -9 27 -5
8 9 405 10 405 1 0 -3 7 -6 15 -6 8 0 15 4 15 9 0 4 7 8 15 8 8 0 15 -5 15
-11 0 -6 5 -7 13 -2 13 8 297 11 297 3 0 -3 512 -4 1138 -3 l1137 2 9 35 c8
31 14 36 38 36 30 0 35 9 17 27 -8 8 -5 17 10 32 25 25 31 26 31 7 0 -8 -7
-17 -16 -20 -14 -5 -12 -9 9 -26 14 -11 35 -20 46 -20 25 0 39 -26 22 -43 -17
-17 -13 -37 9 -37 12 0 20 7 20 18 1 25 38 104 62 129 17 18 22 39 26 101 l4
79 -32 7 c-47 9 -95 8 -125 -4 -25 -9 -26 -14 -24 -68 l3 -57 -94 -5 -94 -5
-10 -39 c-5 -24 -5 -55 1 -82 l10 -43 -333 -3 c-184 -2 -334 0 -334 3 0 3 11
18 25 33 66 71 -58 163 -130 96 -30 -29 -32 -68 -5 -103 11 -14 20 -27 20 -29
0 -1 -58 -3 -128 -3 l-128 0 15 27 c11 20 24 28 44 28 23 0 27 4 27 30 0 24
-4 30 -21 30 -16 0 -19 4 -15 17 4 9 1 20 -6 24 -8 5 3 14 30 25 55 21 72 55
72 138 0 75 -12 109 -48 132 -23 15 -82 17 -576 19 -303 1 -565 -2 -582 -7
-17 -4 -41 -20 -55 -34 -20 -21 -24 -38 -27 -102 -3 -67 -1 -81 18 -105 12
-15 42 -37 66 -49 24 -11 44 -24 44 -29 0 -5 7 -9 16 -9 13 0 15 -7 9 -40 -5
-30 -2 -47 9 -65 21 -32 22 -32 -21 -28 -21 1 -85 5 -143 7 -58 3 -110 5 -116
5 -6 1 -9 14 -6 33 3 22 0 35 -12 43 -15 11 -15 13 4 18 11 3 20 1 20 -4 0 -5
11 -9 24 -9 14 0 28 -4 31 -10 10 -17 25 -11 25 10 0 17 -5 19 -25 14 -19 -5
-25 -2 -25 10 0 14 -18 16 -140 16 l-140 0 0 85 0 85 65 0 65 0 0 45 0 45 -65
0 -64 0 -4 83 -3 82 -2 -82z m1009 -116 c-8 -20 -7 -30 5 -42 9 -8 11 -15 6
-15 -5 0 -15 7 -22 15 -10 12 -10 21 0 45 15 37 25 34 11 -3z m219 -117 c12
-19 12 -41 1 -58 -11 -19 -714 -20 -736 -2 -20 17 -19 57 3 69 11 7 139 10
370 8 301 -2 354 -4 362 -17z m103 -17 c-7 -2 -21 -2 -30 0 -10 3 -4 5 12 5
17 0 24 -2 18 -5z m57 -13 c0 -5 -4 -10 -10 -10 -5 0 -10 5 -10 10 0 6 5 10
10 10 6 0 10 -4 10 -10z m-57 -7 c-7 -2 -21 -2 -30 0 -10 3 -4 5 12 5 17 0 24
-2 18 -5z m-1333 -38 c0 -31 -3 -35 -25 -35 -22 0 -25 4 -25 35 0 31 3 35 25
35 22 0 25 -4 25 -35z m2835 -15 c18 -20 18 -21 -3 -43 l-22 -21 -22 21 c-21
22 -21 23 -3 43 10 11 21 20 25 20 4 0 15 -9 25 -20z m-1895 -10 c0 -5 -11
-10 -24 -10 -14 0 -28 -4 -31 -10 -4 -6 7 -10 24 -10 21 0 31 -5 31 -15 0 -10
-10 -15 -30 -15 -16 0 -30 -4 -30 -10 0 -6 83 -10 230 -10 147 0 230 4 230 10
0 6 -13 10 -30 10 -20 0 -30 5 -30 15 0 10 10 15 30 15 17 0 30 5 30 10 0 6
-13 10 -30 10 -16 0 -30 5 -30 10 0 6 27 10 60 10 48 0 60 -3 60 -16 0 -9 -9
-18 -20 -21 -25 -7 -26 -37 -2 -55 14 -11 42 -51 42 -60 0 -2 -137 -3 -305 -3
-168 0 -305 1 -305 3 0 1 7 14 16 27 11 18 14 35 9 65 -6 33 -4 40 9 40 9 0
16 5 16 10 0 6 18 10 40 10 22 0 40 -4 40 -10z m320 0 c0 -6 -57 -10 -150 -10
-93 0 -150 4 -150 10 0 6 57 10 150 10 93 0 150 -4 150 -10z m-1659 -65 l44
-35 130 0 130 0 44 35 c25 20 51 33 59 30 7 -3 19 -5 25 -5 7 0 4 -5 -5 -11
-19 -11 -24 -59 -9 -74 6 -6 -84 -11 -245 -13 -239 -3 -280 1 -244 23 16 10
11 55 -7 62 -15 6 -15 7 3 14 29 11 28 12 75 -26z m346 29 c-11 -11 -318 -15
-336 -4 -10 6 45 9 163 10 99 0 176 -3 173 -6z m684 -26 c16 -29 -20 -65 -49
-49 -29 16 -34 39 -12 61 22 22 45 17 61 -12z m169 -13 c0 -35 -36 -52 -61
-29 -25 22 -24 39 3 58 28 20 58 4 58 -29z m460 30 c0 -13 -23 -15 -150 -15
-127 0 -150 2 -150 15 0 13 23 15 150 15 127 0 150 -2 150 -15z m234 -1 c9 -8
16 -22 16 -29 0 -13 -26 -45 -36 -45 -39 0 -59 60 -26 79 23 14 28 14 46 -5z
m354 4 c7 -7 12 -21 12 -33 0 -12 -5 -26 -12 -33 -7 -7 -21 -12 -33 -12 -12 0
-26 5 -33 12 -7 7 -12 21 -12 33 0 12 5 26 12 33 7 7 21 12 33 12 12 0 26 -5
33 -12z m-2461 -4 c-3 -3 -12 -4 -19 -1 -8 3 -5 6 6 6 11 1 17 -2 13 -5z m93
2 c0 -2 -7 -6 -15 -10 -8 -3 -15 -1 -15 4 0 6 7 10 15 10 8 0 15 -2 15 -4z
m620 -6 c0 -5 -7 -7 -15 -4 -8 4 -15 8 -15 10 0 2 7 4 15 4 8 0 15 -4 15 -10z
m85 0 c-3 -5 -11 -10 -16 -10 -6 0 -7 5 -4 10 3 6 11 10 16 10 6 0 7 -4 4 -10z
m-280 -20 c-4 -6 -58 -10 -130 -10 -72 0 -126 4 -130 10 -4 6 42 10 130 10 88
0 134 -4 130 -10z m796 -42 c25 -31 24 -33 -21 -33 -22 0 -40 1 -40 3 0 5 35
51 38 52 2 0 12 -10 23 -22z m-1231 -13 c11 -13 5 -15 -44 -15 -52 0 -66 7
-49 23 12 13 81 7 93 -8z m708 -2 c2 -9 -8 -13 -31 -13 -44 0 -69 9 -61 22 8
13 87 5 92 -9z"/>
<path d="M6628 3623 c7 -3 16 -2 19 1 4 3 -2 6 -13 5 -11 0 -14 -3 -6 -6z"/>
<path d="M6628 3593 c7 -3 16 -2 19 1 4 3 -2 6 -13 5 -11 0 -14 -3 -6 -6z"/>
<path d="M9456 3593 c-11 -11 -6 -23 9 -23 8 0 15 4 15 9 0 13 -16 22 -24 14z"/>
<path d="M9426 3981 c-3 -5 1 -14 9 -21 8 -7 18 -30 21 -51 4 -22 10 -39 15
-39 16 0 9 54 -11 88 -21 34 -26 37 -34 23z"/>
<path d="M7592 3941 c-22 -14 11 -21 93 -21 73 0 105 12 62 24 -33 9 -140 7
-155 -3z"/>
<path d="M150 3915 c0 -26 0 -26 85 -23 47 2 88 -2 93 -7 29 -31 42 -113 42
-261 0 -84 3 -155 8 -158 4 -2 40 -8 80 -11 l72 -8 0 153 c0 125 4 165 20 221
l21 69 204 1 c113 0 240 0 282 1 l77 0 23 -73 c20 -65 23 -91 21 -222 l-3
-147 31 0 c17 0 52 3 78 6 l46 7 0 145 c0 123 3 156 22 214 l22 68 93 0 c93 0
93 0 93 25 l0 25 -705 0 -705 0 0 -25z"/>
<path d="M6590 3919 c0 -5 5 -7 10 -4 6 3 10 8 10 11 0 2 -4 4 -10 4 -5 0 -10
-5 -10 -11z"/>
<path d="M8510 3835 c0 -113 11 -125 113 -125 l73 0 -12 94 c-6 52 -15 99 -18
105 -4 6 -39 11 -82 11 l-74 0 0 -85z"/>
<path d="M6597 3873 c-4 -3 -7 -11 -7 -17 0 -6 5 -5 12 2 6 6 9 14 7 17 -3 3
-9 2 -12 -2z"/>
<path d="M5520 3855 c0 -8 2 -15 4 -15 2 0 6 7 10 15 3 8 1 15 -4 15 -6 0 -10
-7 -10 -15z"/>
<path d="M5720 3855 c0 -8 4 -15 8 -15 5 0 9 7 9 15 0 8 -4 15 -9 15 -4 0 -8
-7 -8 -15z"/>
<path d="M6410 3830 c-25 -50 -25 -76 0 -90 28 -15 59 -4 66 25 5 20 -28 105
-41 105 -3 0 -14 -18 -25 -40z m8 -35 c-10 -23 -10 -29 0 -33 6 -2 12 -9 12
-15 0 -6 -7 -4 -16 5 -15 14 -15 21 -4 48 7 17 15 29 17 27 2 -3 -2 -17 -9
-32z"/>
<path d="M9461 3831 c-13 -24 -7 -41 15 -41 16 0 19 27 5 49 -7 11 -11 9 -20
-8z"/>
<path d="M5919 3820 c-1 -11 -1 -27 -1 -35 0 -8 0 -19 1 -25 0 -6 30 -10 66
-10 l65 0 0 45 0 45 -65 0 c-58 0 -65 -2 -66 -20z"/>
<path d="M6070 3795 l0 -45 115 0 115 0 0 45 0 45 -115 0 -115 0 0 -45z"/>
<path d="M6320 3794 c0 -44 1 -45 28 -42 15 2 26 6 24 11 -1 4 4 23 12 42 l15
35 -40 0 -39 0 0 -46z"/>
<path d="M6486 3805 c8 -19 14 -38 14 -42 0 -5 11 -9 25 -11 24 -3 25 -1 25
42 l0 46 -39 0 -40 0 15 -35z"/>
<path d="M6820 3795 l0 -45 70 0 70 0 0 45 0 45 -70 0 -70 0 0 -45z"/>
<path d="M8945 3770 c-3 -5 1 -10 9 -10 9 0 16 5 16 10 0 6 -4 10 -9 10 -6 0
-13 -4 -16 -10z"/>
<path d="M9002 3769 c2 -6 8 -10 13 -10 5 0 11 4 13 10 2 6 -4 11 -13 11 -9 0
-15 -5 -13 -11z"/>
<path d="M8954 3719 c-7 -8 -14 -34 -17 -59 l-6 -45 20 44 c22 49 23 85 3 60z"/>
<path d="M9002 3718 c-7 -7 -12 -32 -11 -57 l0 -46 19 40 c28 61 24 95 -8 63z"/>
<path d="M3657 3693 c-13 -13 -7 -53 8 -53 10 0 15 10 15 30 0 29 -9 38 -23
23z"/>
<path d="M8530 3690 c0 -5 12 -10 28 -10 21 0 24 2 12 10 -20 13 -40 13 -40 0z"/>
<path d="M6094 3675 c-4 -9 -2 -21 4 -27 15 -15 44 -1 40 19 -4 23 -36 29 -44
8z"/>
<path d="M6152 3668 c2 -19 10 -24 41 -26 34 -3 37 -1 37 22 0 24 -4 26 -41
26 -36 0 -40 -2 -37 -22z m61 5 c-7 -2 -21 -2 -30 0 -10 3 -4 5 12 5 17 0 24
-2 18 -5z m0 -20 c-7 -2 -21 -2 -30 0 -10 3 -4 5 12 5 17 0 24 -2 18 -5z"/>
<path d="M2815 3630 l-30 -29 -482 -2 c-266 0 -483 -4 -483 -8 0 -4 7 -28 16
-53 l15 -46 77 -7 c42 -3 156 -17 252 -30 254 -36 478 -48 743 -39 l227 7 19
26 c9 14 38 65 64 112 l45 86 -150 6 c-269 12 -279 11 -313 -23z m353 -7 c2
-9 -11 -13 -47 -13 -48 0 -61 7 -44 24 12 11 86 2 91 -11z m-168 -3 c0 -5 -22
-10 -50 -10 -27 0 -50 5 -50 10 0 6 23 10 50 10 28 0 50 -4 50 -10z"/>
<path d="M8982 3560 c0 -19 2 -27 5 -17 2 9 2 25 0 35 -3 9 -5 1 -5 -18z"/>
<path d="M8687 3574 c-4 -4 -7 -22 -7 -41 0 -29 3 -33 26 -33 23 0 25 3 22 37
-3 36 -23 54 -41 37z"/>
<path d="M8922 3555 c0 -16 2 -22 5 -12 2 9 2 23 0 30 -3 6 -5 -1 -5 -18z"/>
<path d="M8590 3530 c0 -17 7 -20 40 -20 33 0 40 3 40 20 0 17 -7 20 -40 20
-33 0 -40 -3 -40 -20z"/>
<path d="M8885 3520 c-19 -8 -19 -9 3 -9 12 -1 22 4 22 9 0 6 -1 10 -2 9 -2 0
-12 -4 -23 -9z"/>
<path d="M8946 3520 c-17 -6 -18 -7 -3 -13 9 -3 19 -2 23 4 9 15 2 18 -20 9z"/>
<path d="M8990 3516 c0 -9 30 -14 35 -6 4 6 -3 10 -14 10 -12 0 -21 -2 -21 -4z"/>
<path d="M3624 3472 c-27 -3 -30 -6 -26 -32 4 -30 5 -30 73 -30 l69 0 0 30 c0
22 -5 30 -17 31 -10 1 -29 2 -43 3 -14 0 -39 0 -56 -2z"/>
<path d="M9516 3443 c-4 -9 -4 -18 -2 -21 8 -7 36 6 36 17 0 16 -28 20 -34 4z"/>
<path d="M9705 3441 c-6 -11 9 -23 19 -14 9 9 7 23 -3 23 -6 0 -12 -4 -16 -9z"/>
<path d="M6080 3360 c-80 -4 -711 -11 -1404 -13 l-1259 -6 -31 -29 c-45 -41
-79 -60 -144 -81 -31 -9 -88 -36 -125 -58 -44 -27 -86 -44 -120 -48 -59 -8
-113 -33 -141 -64 l-19 -21 3581 0 3582 0 0 161 0 161 -77 -6 c-120 -10 -3203
-15 -3254 -5 -67 13 -426 18 -589 9z"/>
<path d="M399 3047 c5 -5 28 -7 52 -5 l44 3 -52 5 c-29 3 -48 1 -44 -3z"/>
<path d="M618 3053 c7 -3 16 -2 19 1 4 3 -2 6 -13 5 -11 0 -14 -3 -6 -6z"/>
<path d="M1218 3053 c12 -2 32 -2 45 0 12 2 2 4 -23 4 -25 0 -35 -2 -22 -4z"/>
<path d="M1323 3053 c9 -2 23 -2 30 0 6 3 -1 5 -18 5 -16 0 -22 -2 -12 -5z"/>
<path d="M1829 3047 c5 -5 28 -7 52 -5 l44 3 -52 5 c-29 3 -48 1 -44 -3z"/>
<path d="M58 3043 c34 -2 90 -2 125 0 34 2 6 3 -63 3 -69 0 -97 -1 -62 -3z"/>
<path d="M858 3043 c12 -2 30 -2 40 0 9 3 -1 5 -23 4 -22 0 -30 -2 -17 -4z"/>
<path d="M1768 3043 c6 -2 18 -2 25 0 6 3 1 5 -13 5 -14 0 -19 -2 -12 -5z"/>
<path d="M2098 3043 c12 -2 32 -2 45 0 12 2 2 4 -23 4 -25 0 -35 -2 -22 -4z"/>
<path d="M2278 3043 c23 -2 61 -2 85 0 23 2 4 4 -43 4 -47 0 -66 -2 -42 -4z"/>
<path d="M0 400 l0 -400 5000 0 5000 0 0 400 0 400 -5000 0 -5000 0 0 -400z
m2192 123 c23 -20 23 -57 1 -74 -15 -11 -16 -11 -5 1 27 31 11 72 -33 83 -19
4 -19 5 -1 6 11 0 28 -6 38 -16z m-69 -8 c-3 -9 -8 -14 -10 -11 -3 3 -2 9 2
15 9 16 15 13 8 -4z m-1760 -114 c22 -61 43 -108 47 -104 4 4 24 56 45 116 21
59 42 107 47 107 11 0 9 -5 -42 -149 -23 -64 -44 -107 -53 -109 -15 -3 -17 0
-67 143 -15 44 -31 88 -36 99 -5 13 -3 17 6 14 8 -2 32 -55 53 -117z m517 89
c0 -23 4 -30 20 -30 11 0 20 -4 20 -10 0 -5 -10 -10 -21 -10 -20 0 -21 -4 -17
-71 3 -55 8 -74 23 -85 10 -8 16 -16 13 -19 -11 -11 -40 8 -49 32 -12 33 -12
223 1 223 6 0 10 -13 10 -30z m515 16 c24 -11 33 -20 29 -30 -5 -14 -9 -14
-34 -1 -36 18 -61 19 -84 2 -28 -21 -9 -45 49 -62 87 -25 108 -74 54 -127 -29
-29 -33 -30 -90 -25 -68 6 -72 8 -64 29 5 13 12 14 40 5 50 -15 100 1 100 33
0 16 -8 28 -25 36 -113 52 -119 58 -106 110 11 42 70 55 131 30z m105 -16 c0
-25 4 -30 25 -30 16 0 25 -6 25 -15 0 -9 -9 -15 -25 -15 -25 0 -26 -1 -23 -62
3 -54 6 -64 26 -73 12 -5 22 -13 22 -18 0 -17 -31 -18 -55 -3 -24 16 -25 20
-25 131 0 96 3 115 15 115 10 0 15 -10 15 -30z m482 -30 l3 -61 35 30 c19 17
44 30 55 31 16 0 12 -7 -20 -40 l-39 -40 42 -60 c40 -57 41 -60 20 -60 -16 0
-32 14 -53 45 -16 25 -33 45 -37 45 -5 0 -8 -20 -8 -45 0 -38 -3 -45 -20 -45
-19 0 -20 7 -20 130 0 122 1 130 20 130 16 0 19 -8 22 -60z m193 28 c1 -20 -2
-24 -11 -17 -8 7 -14 6 -17 -3 -3 -7 -6 2 -6 20 -1 27 3 33 17 30 11 -2 17
-13 17 -30z m-44 -35 c13 -16 12 -17 -3 -4 -17 13 -22 21 -14 21 2 0 10 -8 17
-17z m-1502 -19 c12 -15 21 -40 21 -55 0 -29 0 -29 -65 -29 -72 0 -83 -12 -44
-51 17 -17 30 -20 65 -16 43 4 59 -5 28 -17 -69 -27 -134 19 -134 95 0 87 82
133 129 73z m191 16 c17 -11 10 -13 -40 -10 -47 2 -75 -28 -75 -80 0 -55 26
-80 82 -80 27 0 42 -4 38 -10 -9 -15 -78 -12 -102 5 -50 35 -50 135 0 170 24
17 74 20 97 5z m265 -13 c20 -16 28 -35 32 -69 5 -42 3 -50 -25 -78 -41 -40
-83 -41 -123 -1 -84 85 27 226 116 148z m85 7 c0 -14 2 -14 22 0 24 17 38 20
38 9 0 -5 -14 -16 -30 -25 -29 -17 -30 -19 -30 -93 0 -43 -4 -75 -10 -75 -6 0
-10 40 -10 100 0 60 4 100 10 100 6 0 10 -7 10 -16z m545 -9 c20 -19 25 -34
25 -75 0 -63 -30 -100 -82 -100 -66 0 -103 56 -87 130 16 69 95 94 144 45z
m184 16 c21 -13 3 -32 -24 -25 -52 13 -88 -41 -65 -97 13 -31 39 -44 69 -34
23 7 39 -14 20 -26 -50 -32 -129 20 -129 85 0 67 32 104 90 105 14 0 31 -3 39
-8z m5370 -94 c8 -26 17 -47 21 -47 4 0 13 21 21 47 8 25 20 48 26 50 13 5
-22 -113 -38 -131 -12 -14 -18 -5 -45 69 -16 44 -20 65 -12 63 7 -3 19 -26 27
-51z m638 38 c2 -6 -9 -11 -23 -10 -38 0 -40 -20 -5 -35 69 -28 36 -101 -33
-74 -27 10 -18 22 17 20 38 -1 43 19 8 37 -36 18 -48 42 -31 62 14 17 61 17
67 0z m333 -20 c0 -35 16 -47 26 -20 4 8 13 15 22 15 13 0 13 -3 -2 -19 -16
-18 -16 -21 -1 -50 19 -38 8 -40 -22 -3 l-22 27 -1 -27 c0 -16 -4 -28 -10 -28
-6 0 -10 30 -10 70 0 40 4 70 10 70 6 0 10 -16 10 -35z m580 32 c0 -4 -34
-104 -45 -136 -3 -8 -8 -11 -11 -8 -8 7 38 147 48 147 4 0 8 -2 8 -3z m100
-16 c-5 -11 -15 -23 -20 -26 -6 -4 -1 -14 12 -25 20 -15 21 -21 10 -44 -11
-26 -34 -32 -66 -20 -28 11 -17 24 14 18 22 -5 31 -2 36 11 6 16 -3 28 -31 39
-6 2 -5 9 3 17 18 19 15 29 -8 29 -11 0 -20 5 -20 10 0 6 18 10 40 10 37 0 40
-2 30 -19z m112 -33 c2 -29 2 -61 0 -70 -5 -22 -22 -24 -22 -3 0 10 -10 15
-30 15 -16 0 -30 3 -30 6 0 16 56 104 67 104 6 0 13 -22 15 -52z m122 30 c44
-63 -17 -154 -68 -102 -9 9 -16 32 -16 54 0 64 52 94 84 48z m118 -30 c2 -29
2 -61 0 -70 -5 -22 -22 -24 -22 -3 0 10 -10 15 -30 15 -16 0 -30 3 -30 6 0 16
56 104 67 104 6 0 13 -22 15 -52z m88 -8 c0 -33 4 -60 10 -60 6 0 10 -4 10
-10 0 -5 -13 -10 -30 -10 -16 0 -30 5 -30 10 0 6 5 10 10 10 6 0 10 20 10 45
0 38 -2 43 -17 38 -16 -6 -16 -4 1 15 29 34 36 27 36 -38z m130 55 c0 -6 -60
-127 -66 -134 -2 -2 -7 -2 -10 1 -3 3 6 29 20 57 14 28 26 53 26 56 0 3 -13 5
-30 5 -16 0 -30 5 -30 10 0 6 20 10 45 10 25 0 45 -2 45 -5z m88 -7 c21 -21
13 -45 -25 -77 l-38 -30 43 -1 c23 0 42 -4 42 -10 0 -5 -22 -10 -50 -10 -62 0
-65 15 -14 63 42 40 39 62 -8 53 -26 -5 -29 -4 -18 9 15 18 51 20 68 3z m117
-8 c13 -15 16 -30 12 -61 -12 -87 -97 -77 -97 11 0 63 47 92 85 50z m-2084
-38 c-15 -5 -14 -59 2 -65 6 -2 9 -7 6 -11 -15 -17 -37 8 -41 47 -6 59 0 72
24 50 11 -10 15 -19 9 -21z m359 13 c9 -10 9 -15 1 -15 -15 0 -14 -57 2 -63 6
-2 9 -7 6 -11 -15 -16 -37 8 -41 44 -5 60 6 76 32 45z m-532 -7 c23 -23 13
-38 -24 -38 -46 0 -41 -23 7 -30 27 -4 30 -7 16 -13 -42 -16 -77 6 -77 48 0
37 52 59 78 33z m109 5 c14 -6 10 -9 -17 -13 -29 -4 -35 -9 -35 -30 0 -21 5
-26 33 -28 36 -4 34 -22 -3 -22 -28 0 -55 24 -55 50 0 22 25 50 45 50 7 0 22
-3 32 -7z m177 -9 c21 -20 20 -43 -1 -66 -20 -22 -46 -23 -67 -2 -31 30 -9 84
34 84 10 0 26 -7 34 -16z m86 6 c0 -4 -7 -10 -15 -14 -9 -3 -15 -19 -15 -41 0
-19 -4 -35 -10 -35 -5 0 -10 22 -10 49 0 45 2 49 25 49 14 0 25 -4 25 -8z
m274 -6 c21 -20 20 -43 -1 -66 -20 -22 -46 -23 -67 -2 -31 30 -9 84 34 84 10
0 26 -7 34 -16z m121 7 c3 -5 -9 -11 -27 -13 -28 -2 -33 -7 -33 -28 0 -21 5
-26 33 -28 36 -4 34 -22 -3 -22 -28 0 -55 24 -55 50 0 37 67 69 85 41z m242 2
c14 -6 10 -9 -17 -13 -29 -4 -35 -9 -35 -30 0 -21 5 -26 33 -28 36 -4 34 -22
-3 -22 -28 0 -55 24 -55 50 0 22 25 50 45 50 7 0 22 -3 32 -7z m107 -9 c21
-20 20 -43 -1 -66 -20 -22 -46 -23 -67 -2 -31 30 -9 84 34 84 10 0 26 -7 34
-16z m113 4 c7 -5 14 -5 18 2 10 16 42 12 49 -6 10 -25 7 -84 -4 -84 -5 0 -10
18 -10 41 0 33 -3 40 -17 37 -13 -2 -19 -14 -21 -41 -4 -50 -22 -47 -22 4 0
36 -2 40 -22 37 -19 -2 -24 -10 -26 -40 -5 -55 -22 -46 -22 10 0 48 0 49 33
49 17 0 37 -4 44 -9z m-327 -78 c0 -5 -4 -10 -10 -10 -5 0 -10 5 -10 10 0 6 5
10 10 10 6 0 10 -4 10 -10z"/>
<path d="M2150 500 c0 -5 5 -10 10 -10 6 0 10 5 10 10 0 6 -4 10 -10 10 -5 0
-10 -4 -10 -10z"/>
<path d="M536 418 c-28 -39 -21 -48 39 -48 59 0 67 9 45 51 -15 27 -64 25 -84
-3z"/>
<path d="M986 424 c-50 -50 -21 -144 44 -144 48 0 80 50 66 104 -13 53 -75 75
-110 40z"/>
<path d="M1616 408 c-22 -31 -20 -74 4 -98 26 -26 55 -25 74 2 32 46 8 118
-39 118 -13 0 -31 -10 -39 -22z"/>
<path d="M8987 350 c-18 -29 -18 -30 2 -30 17 0 21 6 21 30 0 17 -1 30 -3 30
-1 0 -11 -13 -20 -30z"/>
<path d="M9094 365 c-9 -38 3 -75 26 -75 13 0 22 9 26 25 9 38 -3 75 -26 75
-13 0 -22 -9 -26 -25z"/>
<path d="M9227 350 c-18 -29 -18 -30 2 -30 17 0 21 6 21 30 0 17 -1 30 -3 30
-1 0 -11 -13 -20 -30z"/>
<path d="M9634 365 c-9 -38 3 -75 26 -75 23 0 35 37 26 75 -4 16 -13 25 -26
25 -13 0 -22 -9 -26 -25z"/>
<path d="M7385 340 c-4 -6 5 -10 19 -10 14 0 26 5 26 10 0 6 -9 10 -19 10 -11
0 -23 -4 -26 -10z"/>
<path d="M7664 336 c-10 -26 4 -48 28 -44 17 2 23 10 23 28 0 18 -6 26 -23 28
-13 2 -25 -3 -28 -12z"/>
<path d="M8024 336 c-10 -26 4 -48 28 -44 17 2 23 10 23 28 0 18 -6 26 -23 28
-13 2 -25 -3 -28 -12z"/>
<path d="M8494 336 c-10 -26 4 -48 28 -44 17 2 23 10 23 28 0 18 -6 26 -23 28
-13 2 -25 -3 -28 -12z"/>
</g>
</svg>
