<?xml version="1.0" standalone="no"?>
<!DOCTYPE svg PUBLIC "-//W3C//DTD SVG 20010904//EN"
 "http://www.w3.org/TR/2001/REC-SVG-20010904/DTD/svg10.dtd">
<svg version="1.0" xmlns="http://www.w3.org/2000/svg"
 width="273.000000pt" height="185.000000pt" viewBox="0 0 273.000000 185.000000"
 preserveAspectRatio="xMidYMid meet">

<g transform="translate(0.000000,185.000000) scale(0.100000,-0.100000)"
fill="#000000" stroke="none">
<path d="M1680 1280 c0 -6 -9 -10 -21 -10 -11 0 -45 -7 -75 -16 -49 -14 -54
-18 -54 -43 l0 -29 68 15 c37 7 107 14 155 14 100 0 164 -22 230 -81 l37 -32
0 40 c0 27 -5 42 -16 46 -8 3 -12 11 -8 17 4 8 3 9 -5 5 -6 -4 -18 -2 -26 4
-8 7 -40 23 -72 36 -40 16 -50 24 -34 24 13 0 22 2 20 5 -10 10 -199 14 -199
5z"/>
<path d="M1430 1232 c0 -11 4 -23 8 -26 10 -6 9 30 -1 40 -4 4 -7 -2 -7 -14z"/>
<path d="M1627 1190 c-52 -9 -73 -20 -41 -20 15 0 16 -2 5 -9 -9 -6 2 -11 35
-15 l49 -7 0 -47 0 -47 43 3 c25 2 42 -1 42 -7 0 -6 -13 -11 -30 -11 -33 0
-36 -17 -7 -38 9 -7 17 -20 17 -28 0 -10 13 -14 48 -14 26 0 53 -5 60 -12 9
-9 12 -9 12 2 0 7 3 10 7 7 3 -4 15 1 25 10 18 16 19 16 8 -12 -9 -23 -9 -27
0 -18 7 6 21 35 31 65 17 49 18 50 13 13 -4 -22 -16 -55 -27 -74 l-21 -34 53
-47 c50 -44 52 -47 41 -75 -6 -17 -23 -50 -37 -74 -28 -48 -36 -45 -47 24 -18
106 -36 123 -103 100 -21 -7 -39 -9 -41 -5 -2 5 -9 7 -17 4 -7 -3 -16 -1 -20
5 -3 6 -11 11 -16 11 -6 0 -2 -12 9 -27 13 -19 18 -39 15 -63 -3 -21 -1 -30 4
-23 18 26 36 -3 42 -69 2 -13 62 -77 93 -100 17 -11 40 -22 52 -23 36 -3 83
52 111 129 l26 71 44 0 c31 0 50 6 67 23 26 24 38 28 38 12 0 -16 -62 -50 -90
-50 -20 0 -22 -2 -10 -10 29 -19 85 -11 110 15 27 29 38 31 46 10 4 -8 -6 -25
-23 -40 l-28 -27 32 18 c30 16 32 16 49 -1 17 -17 17 -18 -5 -36 -13 -11 -34
-19 -48 -19 -14 0 -23 -3 -21 -7 2 -5 15 -31 30 -58 34 -66 58 -150 66 -233 7
-67 7 -67 43 -76 20 -5 48 -6 62 -2 25 6 26 9 21 59 -13 131 -35 214 -86 317
-52 109 -98 176 -98 145 0 -9 -4 -14 -9 -11 -5 3 -7 14 -4 25 3 13 -29 52
-119 144 -68 69 -131 135 -141 147 -12 13 -25 19 -35 15 -9 -3 -13 -3 -9 1 4
4 0 18 -9 31 -15 24 -15 24 5 13 42 -22 20 -1 -26 26 -42 24 -61 28 -143 30
-52 1 -117 -1 -143 -6z m314 -114 c14 8 11 -12 -3 -24 -10 -8 -13 -4 -14 16
-1 15 1 21 3 14 3 -6 9 -10 14 -6z m99 -284 c0 -16 -40 -126 -62 -172 -12 -25
-22 -49 -22 -54 -1 -5 -8 -11 -16 -13 -12 -4 -12 -3 -1 5 9 7 10 12 2 16 -6 4
-11 17 -11 29 -1 30 82 195 98 196 6 1 12 -3 12 -7z m-212 -91 c7 -30 10 -56
8 -59 -9 -8 -46 63 -46 89 0 28 10 44 20 32 4 -5 12 -32 18 -62z m456 43 c3
-8 2 -12 -4 -9 -6 3 -10 10 -10 16 0 14 7 11 14 -7z"/>
<path d="M1125 1173 c-23 -6 -55 -32 -55 -45 0 -5 5 -6 10 -3 12 8 50 -3 50
-14 0 -5 -35 -22 -77 -38 -43 -17 -87 -34 -98 -39 -11 -4 -24 -8 -30 -9 -5 0
-16 -4 -22 -8 -7 -5 -17 -6 -22 -2 -5 3 -15 -1 -23 -8 -7 -7 -31 -20 -53 -29
-22 -9 -39 -22 -37 -30 1 -7 -6 -2 -16 11 -28 35 -57 22 -48 -21 13 -65 65
-93 67 -35 0 17 3 27 5 20 5 -11 85 11 132 37 14 7 38 17 62 25 3 1 19 7 35
14 17 6 50 19 75 28 25 9 51 21 58 26 9 7 12 4 12 -12 0 -12 -7 -24 -15 -27
-8 -4 -15 -10 -15 -14 0 -17 39 -21 72 -7 25 11 47 12 88 5 30 -5 75 -10 100
-11 39 -2 46 2 65 28 15 22 26 29 45 27 34 -5 47 -19 32 -34 -18 -18 -15 -25
11 -23 12 1 27 11 33 23 6 12 14 19 17 16 3 -4 12 0 20 7 19 19 -1 77 -33 98
-23 15 -23 15 -11 -7 7 -13 11 -30 9 -38 -2 -13 -7 -12 -27 5 -14 12 -36 24
-50 28 -14 3 -35 14 -46 24 -20 18 -29 19 -163 20 -40 0 -84 4 -98 9 -27 11
-27 11 -59 3z m365 -103 c0 -5 -4 -10 -10 -10 -5 0 -10 5 -10 10 0 6 5 10 10
10 6 0 10 -4 10 -10z m-595 -100 c-3 -5 -10 -10 -16 -10 -5 0 -9 5 -9 10 0 6
7 10 16 10 8 0 12 -4 9 -10z"/>
</g>
</svg>
